<?xml version="1.0" encoding="UTF-8" standalone="no"?>
<!DOCTYPE svg PUBLIC "-//W3C//DTD SVG 1.1//EN"
 "http://www.w3.org/Graphics/SVG/1.1/DTD/svg11.dtd">
<!-- Generated by graphviz version 2.43.0 (0)
 -->
<!-- Title: %3 Pages: 1 -->
<svg width="686pt" height="479pt"
 viewBox="0.00 0.00 686.47 479.00" xmlns="http://www.w3.org/2000/svg" xmlns:xlink="http://www.w3.org/1999/xlink">
<g id="graph0" class="graph" transform="scale(1 1) rotate(0) translate(4 475)">
<title>%3</title>
<polygon fill="#333333" stroke="transparent" points="-4,4 -4,-475 682.47,-475 682.47,4 -4,4"/>
<text text-anchor="middle" x="339.24" y="-9.2" font-family="Times,serif" font-size="16.00" fill="white">Network Map</text>
<!-- R5 -->
<g id="node1" class="node">
<title>R5</title>
<polygon fill="#006699" stroke="#006699" points="516.97,-223 439.97,-223 439.97,-150 516.97,-150 516.97,-223"/>
<text text-anchor="middle" x="478.47" y="-182.8" font-family="Helvetica,sans-Serif" font-size="14.00" fill="white">R5</text>
</g>
<!-- R6 -->
<g id="node2" class="node">
<title>R6</title>
<polygon fill="#006699" stroke="#006699" points="86.97,-347 9.97,-347 9.97,-274 86.97,-274 86.97,-347"/>
<text text-anchor="middle" x="48.47" y="-306.8" font-family="Helvetica,sans-Serif" font-size="14.00" fill="white">R6</text>
</g>
<!-- SW1 -->
<g id="node3" class="node">
<title>SW1</title>
<polygon fill="#006699" stroke="#006699" points="339.47,-223 249.47,-223 249.47,-150 339.47,-150 339.47,-223"/>
<text text-anchor="middle" x="294.47" y="-182.8" font-family="Helvetica,sans-Serif" font-size="14.00" fill="white">SW1</text>
</g>
<!-- SW1&#45;&#45;R6 -->
<g id="edge4" class="edge">
<title>SW1&#45;&#45;R6</title>
<path fill="none" stroke="green" stroke-dasharray="5,2" d="M249.36,-192.45C190.26,-199.85 91.13,-215.7 65.47,-241 56.75,-249.6 52.25,-261.94 50,-273.78"/>
<text text-anchor="middle" x="115.47" y="-244.8" font-family="Courier,monospace" font-size="14.00" fill="white"> &#160;&#160;&#160;&#160;&#160;&#160;&#160;&#160;&#160;&#160;&#160;</text>
<text text-anchor="middle" x="25" y="-262.58" font-family="Courier,monospace" font-size="14.00" fill="white">Eth0/1</text>
<text text-anchor="middle" x="224.36" y="-181.25" font-family="Courier,monospace" font-size="14.00" fill="white">Eth0/5</text>
</g>
<!-- R2 -->
<g id="node4" class="node">
<title>R2</title>
<polygon fill="#006699" stroke="#006699" points="270.97,-347 193.97,-347 193.97,-274 270.97,-274 270.97,-347"/>
<text text-anchor="middle" x="232.47" y="-306.8" font-family="Helvetica,sans-Serif" font-size="14.00" fill="white">R2</text>
</g>
<!-- SW1&#45;&#45;R2 -->
<g id="edge2" class="edge">
<title>SW1&#45;&#45;R2</title>
<path fill="none" stroke="green" stroke-dasharray="5,2" d="M249.31,-194.69C222.06,-201.61 189.43,-215.06 172.47,-241 161.49,-257.81 176.17,-274.8 193.76,-287.65"/>
<text text-anchor="middle" x="222.47" y="-244.8" font-family="Courier,monospace" font-size="14.00" fill="white"> &#160;&#160;&#160;&#160;&#160;&#160;&#160;&#160;&#160;&#160;&#160;</text>
<text text-anchor="middle" x="168.76" y="-276.45" font-family="Courier,monospace" font-size="14.00" fill="white">Eth0/0</text>
<text text-anchor="middle" x="224.31" y="-198.49" font-family="Courier,monospace" font-size="14.00" fill="white">Eth0/2</text>
</g>
<!-- R1 -->
<g id="node5" class="node">
<title>R1</title>
<polygon fill="#006699" stroke="#006699" points="516.97,-347 439.97,-347 439.97,-274 516.97,-274 516.97,-347"/>
<text text-anchor="middle" x="478.47" y="-306.8" font-family="Helvetica,sans-Serif" font-size="14.00" fill="white">R1</text>
</g>
<!-- SW1&#45;&#45;R1 -->
<g id="edge1" class="edge">
<title>SW1&#45;&#45;R1</title>
<path fill="none" stroke="green" stroke-dasharray="5,2" d="M339.75,-213.72C353.9,-222.19 369.48,-231.77 383.47,-241 402.32,-253.43 422.68,-267.95 439.7,-280.43"/>
<text text-anchor="middle" x="454.47" y="-244.8" font-family="Courier,monospace" font-size="14.00" fill="white"> &#160;&#160;&#160;&#160;&#160;&#160;&#160;&#160;&#160;&#160;&#160;</text>
<text text-anchor="middle" x="414.7" y="-269.23" font-family="Courier,monospace" font-size="14.00" fill="white">Eth0/0</text>
<text text-anchor="middle" x="364.75" y="-217.52" font-family="Courier,monospace" font-size="14.00" fill="white">Eth0/1</text>
</g>
<!-- R3 -->
<g id="node8" class="node">
<title>R3</title>
<polygon fill="#006699" stroke="#006699" points="454.97,-99 377.97,-99 377.97,-26 454.97,-26 454.97,-99"/>
<text text-anchor="middle" x="416.47" y="-58.8" font-family="Helvetica,sans-Serif" font-size="14.00" fill="white">R3</text>
</g>
<!-- SW1&#45;&#45;R3 -->
<g id="edge3" class="edge">
<title>SW1&#45;&#45;R3</title>
<path fill="none" stroke="green" stroke-dasharray="5,2" d="M322.57,-149.98C331.73,-139.05 342.19,-127.21 352.47,-117 360.38,-109.14 369.33,-101.17 377.96,-93.86"/>
<text text-anchor="middle" x="402.47" y="-120.8" font-family="Courier,monospace" font-size="14.00" fill="white"> &#160;&#160;&#160;&#160;&#160;&#160;&#160;&#160;&#160;&#160;&#160;</text>
<text text-anchor="middle" x="352.96" y="-82.66" font-family="Courier,monospace" font-size="14.00" fill="white">Eth0/0</text>
<text text-anchor="middle" x="297.57" y="-138.78" font-family="Courier,monospace" font-size="14.00" fill="white">Eth0/3</text>
</g>
<!-- R2&#45;&#45;SW1 -->
<g id="edge6" class="edge">
<title>R2&#45;&#45;SW1</title>
<path fill="none" stroke="green" stroke-dasharray="5,2" d="M261.71,-273.72C265.65,-267.99 269.39,-261.98 272.47,-256 277.74,-245.79 282.07,-234.07 285.44,-223.25"/>
<text text-anchor="middle" x="329.47" y="-244.8" font-family="Courier,monospace" font-size="14.00" fill="white"> &#160;&#160;&#160;&#160;&#160;&#160;&#160;&#160;&#160;&#160;&#160;</text>
<text text-anchor="middle" x="260.44" y="-227.05" font-family="Courier,monospace" font-size="14.00" fill="white">Eth0/2</text>
<text text-anchor="middle" x="236.71" y="-262.52" font-family="Courier,monospace" font-size="14.00" fill="white">Eth0/0</text>
</g>
<!-- SW2 -->
<g id="node6" class="node">
<title>SW2</title>
<polygon fill="#006699" stroke="#006699" points="277.47,-471 187.47,-471 187.47,-398 277.47,-398 277.47,-471"/>
<text text-anchor="middle" x="232.47" y="-430.8" font-family="Helvetica,sans-Serif" font-size="14.00" fill="white">SW2</text>
</g>
<!-- R2&#45;&#45;SW2 -->
<g id="edge7" class="edge">
<title>R2&#45;&#45;SW2</title>
<path fill="none" stroke="green" stroke-dasharray="5,2" d="M232.47,-347.12C232.47,-363.01 232.47,-381.7 232.47,-397.63"/>
<text text-anchor="middle" x="282.47" y="-368.8" font-family="Courier,monospace" font-size="14.00" fill="white"> &#160;&#160;&#160;&#160;&#160;&#160;&#160;&#160;&#160;&#160;&#160;</text>
<text text-anchor="middle" x="203.47" y="-386.43" font-family="Courier,monospace" font-size="14.00" fill="white">Eth0/11</text>
<text text-anchor="middle" x="207.47" y="-350.92" font-family="Courier,monospace" font-size="14.00" fill="white">Eth0/1</text>
</g>
<!-- R1&#45;&#45;SW1 -->
<g id="edge5" class="edge">
<title>R1&#45;&#45;SW1</title>
<path fill="none" stroke="green" stroke-dasharray="5,2" d="M508.24,-273.76C513.98,-262.59 516.14,-250.66 508.47,-241 486.63,-213.47 465.6,-231.41 431.47,-223 400.82,-215.45 366.42,-206.53 339.76,-199.52"/>
<text text-anchor="middle" x="562.47" y="-244.8" font-family="Courier,monospace" font-size="14.00" fill="white"> &#160;&#160;&#160;&#160;&#160;&#160;&#160;&#160;&#160;&#160;&#160;</text>
<text text-anchor="middle" x="364.76" y="-188.32" font-family="Courier,monospace" font-size="14.00" fill="white">Eth0/1</text>
<text text-anchor="middle" x="483.24" y="-262.56" font-family="Courier,monospace" font-size="14.00" fill="white">Eth0/0</text>
</g>
<!-- R4 -->
<g id="node7" class="node">
<title>R4</title>
<polygon fill="#006699" stroke="#006699" points="639.97,-223 562.97,-223 562.97,-150 639.97,-150 639.97,-223"/>
<text text-anchor="middle" x="601.47" y="-182.8" font-family="Helvetica,sans-Serif" font-size="14.00" fill="white">R4</text>
</g>
<!-- R3&#45;&#45;R5 -->
<g id="edge10" class="edge">
<title>R3&#45;&#45;R5</title>
<path fill="none" stroke="green" stroke-dasharray="5,2" d="M445.71,-99.28C449.65,-105.01 453.39,-111.02 456.47,-117 461.74,-127.21 466.07,-138.93 469.44,-149.75"/>
<text text-anchor="middle" x="512.47" y="-120.8" font-family="Courier,monospace" font-size="14.00" fill="white"> &#160;&#160;&#160;&#160;&#160;&#160;&#160;&#160;&#160;&#160;&#160;</text>
<text text-anchor="middle" x="444.44" y="-138.55" font-family="Courier,monospace" font-size="14.00" fill="white">Eth0/0</text>
<text text-anchor="middle" x="420.71" y="-103.08" font-family="Courier,monospace" font-size="14.00" fill="white">Eth0/2</text>
</g>
<!-- R3&#45;&#45;SW1 -->
<g id="edge8" class="edge">
<title>R3&#45;&#45;SW1</title>
<path fill="none" stroke="green" stroke-dasharray="5,2" d="M377.91,-69.42C330.02,-77.65 252.54,-94.16 235.47,-117 225.05,-130.96 234.75,-145.69 249.09,-157.9"/>
<text text-anchor="middle" x="285.47" y="-120.8" font-family="Courier,monospace" font-size="14.00" fill="white"> &#160;&#160;&#160;&#160;&#160;&#160;&#160;&#160;&#160;&#160;&#160;</text>
<text text-anchor="middle" x="224.09" y="-146.7" font-family="Courier,monospace" font-size="14.00" fill="white">Eth0/3</text>
<text text-anchor="middle" x="352.91" y="-58.22" font-family="Courier,monospace" font-size="14.00" fill="white">Eth0/0</text>
</g>
<!-- R3&#45;&#45;R4 -->
<g id="edge9" class="edge">
<title>R3&#45;&#45;R4</title>
<path fill="none" stroke="green" stroke-dasharray="5,2" d="M454.99,-69.09C487.93,-75.61 534.89,-89.27 566.47,-117 576.41,-125.72 583.89,-137.94 589.34,-149.65"/>
<text text-anchor="middle" x="628.47" y="-120.8" font-family="Courier,monospace" font-size="14.00" fill="white"> &#160;&#160;&#160;&#160;&#160;&#160;&#160;&#160;&#160;&#160;&#160;</text>
<text text-anchor="middle" x="564.34" y="-138.45" font-family="Courier,monospace" font-size="14.00" fill="white">Eth0/0</text>
<text text-anchor="middle" x="479.99" y="-57.89" font-family="Courier,monospace" font-size="14.00" fill="white">Eth0/1</text>
</g>
</g>
</svg>
